<?xml version="1.0" encoding="UTF-8" standalone="no"?>
<svg
   height="518"
   width="518"
   version="1.1"
   id="svg4"
   sodipodi:docname="brightness-4.svg"
   inkscape:version="1.2.1 (9c6d41e410, 2022-07-14)"
   xmlns:inkscape="http://www.inkscape.org/namespaces/inkscape"
   xmlns:sodipodi="http://sodipodi.sourceforge.net/DTD/sodipodi-0.dtd"
   xmlns="http://www.w3.org/2000/svg"
   xmlns:svg="http://www.w3.org/2000/svg">
  <defs
     id="defs8" />
  <sodipodi:namedview
     id="namedview6"
     pagecolor="#505050"
     bordercolor="#ffffff"
     borderopacity="1"
     inkscape:showpageshadow="0"
     inkscape:pageopacity="0"
     inkscape:pagecheckerboard="1"
     inkscape:deskcolor="#505050"
     showgrid="false"
     inkscape:zoom="0.43457604"
     inkscape:cx="96.645916"
     inkscape:cy="62.129518"
     inkscape:window-width="1254"
     inkscape:window-height="710"
     inkscape:window-x="10"
     inkscape:window-y="74"
     inkscape:window-maximized="1"
     inkscape:current-layer="svg4" />
  <path
     d="m 188.72028,428.21396 h -66.08392 q -13.11188,0 -22.29021,-9.20996 -9.17832,-9.20996 -9.17832,-22.36704 V 330.32525 L 42.91608,281.90718 Q 34,272.96036 34,259.80327 q 0,-13.15708 8.91608,-22.1039 L 91.16783,189.2813 v -66.31171 q 0,-13.15708 9.17832,-22.36704 9.17833,-9.20996 22.29021,-9.20996 h 66.08392 L 236.97203,42.97452 Q 245.88811,33.50141 259,34.0277 q 13.11189,0.52628 22.55245,9.4731 l 47.72727,47.89179 h 66.08392 q 13.11188,0 22.29021,9.20996 9.17832,9.20996 9.17832,22.36704 v 66.31171 l 48.25175,48.41807 Q 484,246.64619 484,259.80327 q 0,13.15709 -8.91608,22.10391 l -48.25175,48.41807 v 66.31171 q 0,13.15708 -9.17832,22.36704 -9.17833,9.20996 -22.29021,9.20996 h -66.08392 l -47.2028,46.83922 Q 272.63636,484 259.52448,484 q -13.11189,0 -22.55245,-8.94682 z m 70.8042,-168.93697 z m 0,193.67229 56.64335,-56.31232 h 79.19581 v -79.4688 l 57.16783,-57.36489 -57.16783,-57.36489 V 122.96959 H 316.16783 L 259.52448,65.6047 201.83217,122.96959 h -79.19581 v 79.46879 l -57.16783,57.36489 57.16783,57.36489 v 79.4688 h 78.67133 z m 5.24475,-91.57331 q 42.48252,0 72.11539,-29.73501 29.63286,-29.73502 29.63286,-71.83769 0,-42.10267 -29.63286,-71.57454 -29.63287,-29.47187 -72.11539,-29.47187 -6.81818,0 -12.06294,0.78943 -5.24475,0.78942 -9.96503,1.84199 -2.62238,1.05257 -4.45804,3.1577 -1.83567,2.10513 -1.83567,4.73655 0,1.05257 4.72028,8.42053 19.93007,13.68337 30.68182,35.52413 10.75175,21.84076 10.75175,46.57608 0,25.78789 -11.01399,47.62865 -11.01398,21.84076 -30.94405,34.99785 -1.57343,1.05256 -4.72028,7.89425 0,2.63141 2.0979,4.99969 2.0979,2.36827 4.72028,3.42084 6.81818,1.57885 12.06294,2.10513 5.24475,0.52629 9.96503,0.52629 z"
     id="path2"
     style="stroke-width:10.5076;fill:#ece3b1;fill-opacity:1" />
</svg>
