<?xml version="1.0" encoding="UTF-8" standalone="no"?>
<svg
   height="518"
   width="518"
   version="1.1"
   id="svg4"
   sodipodi:docname="brightness-1.svg"
   inkscape:version="1.2.1 (9c6d41e410, 2022-07-14)"
   xmlns:inkscape="http://www.inkscape.org/namespaces/inkscape"
   xmlns:sodipodi="http://sodipodi.sourceforge.net/DTD/sodipodi-0.dtd"
   xmlns="http://www.w3.org/2000/svg"
   xmlns:svg="http://www.w3.org/2000/svg">
  <defs
     id="defs8" />
  <sodipodi:namedview
     id="namedview6"
     pagecolor="#505050"
     bordercolor="#ffffff"
     borderopacity="1"
     inkscape:showpageshadow="0"
     inkscape:pageopacity="0"
     inkscape:pagecheckerboard="1"
     inkscape:deskcolor="#505050"
     showgrid="false"
     inkscape:zoom="0.30729167"
     inkscape:cx="270.10169"
     inkscape:cy="400.27119"
     inkscape:window-width="1254"
     inkscape:window-height="710"
     inkscape:window-x="10"
     inkscape:window-y="74"
     inkscape:window-maximized="1"
     inkscape:current-layer="svg4" />
  <path
     d="M 259,484 Q 212.875,484 171.8125,466.28125 130.75,448.5625 100.09375,417.90625 69.4375,387.25 51.71875,346.1875 34,305.125 34,259 34,212.3125 51.71875,171.25 69.4375,130.1875 100.09375,99.8125 130.75,69.4375 171.8125,51.71875 212.875,34 259,34 q 46.6875,0 87.75,17.71875 41.0625,17.71875 71.4375,48.09375 30.375,30.375 48.09375,71.4375 Q 484,212.3125 484,259 484,305.125 466.28125,346.1875 448.5625,387.25 418.1875,417.90625 387.8125,448.5625 346.75,466.28125 305.6875,484 259,484 Z m 0,-33.75 q 79.875,0 135.5625,-55.96875 Q 450.25,338.3125 450.25,259 450.25,179.125 394.5625,123.4375 338.875,67.75 259,67.75 179.6875,67.75 123.71875,123.4375 67.75,179.125 67.75,259 q 0,79.3125 55.96875,135.28125 Q 179.6875,450.25 259,450.25 Z M 259,259 Z"
     id="path2"
     style="fill:#ceace8;fill-opacity:1;stroke-width:11.25" />
</svg>
