<?xml version="1.0" encoding="UTF-8" standalone="no"?>
<svg
   height="518"
   width="518"
   version="1.1"
   id="svg4"
   sodipodi:docname="brightness-2.svg"
   inkscape:version="1.2.1 (9c6d41e410, 2022-07-14)"
   xmlns:inkscape="http://www.inkscape.org/namespaces/inkscape"
   xmlns:sodipodi="http://sodipodi.sourceforge.net/DTD/sodipodi-0.dtd"
   xmlns="http://www.w3.org/2000/svg"
   xmlns:svg="http://www.w3.org/2000/svg">
  <defs
     id="defs8" />
  <sodipodi:namedview
     id="namedview6"
     pagecolor="#505050"
     bordercolor="#ffffff"
     borderopacity="1"
     inkscape:showpageshadow="0"
     inkscape:pageopacity="0"
     inkscape:pagecheckerboard="1"
     inkscape:deskcolor="#505050"
     showgrid="false"
     inkscape:zoom="0.61458333"
     inkscape:cx="165.15254"
     inkscape:cy="318.91525"
     inkscape:window-width="1254"
     inkscape:window-height="710"
     inkscape:window-x="10"
     inkscape:window-y="74"
     inkscape:window-maximized="1"
     inkscape:current-layer="svg4" />
  <path
     d="m 189.93526,63.316552 q -11.51078,0 -23.59714,1.15108 -12.08632,1.151078 -18.41726,2.877697 36.83453,41.438841 56.40288,90.359711 19.56837,48.92086 19.56837,101.29496 0,52.37409 -19.56837,101.58273 -19.56835,49.20864 -55.82733,89.49642 6.33093,1.7266 17.84171,3.16545 11.5108,1.43887 24.74821,1.43887 80.57555,0 137.26619,-56.40288 56.69064,-56.4029 56.69064,-139.28059 0,-82.87771 -57.26619,-139.28056 Q 270.51078,63.316552 189.93526,63.316552 Z M 419,259 q 0,49.4964 -17.55396,91.51078 -17.55393,42.0144 -48.34533,72.80575 -30.79137,30.79139 -71.65467,48.34535 -40.86331,17.55394 -87.48202,17.55394 -21.29495,0 -43.45323,-4.02877 -22.15827,-4.02878 -40.57553,-10.35971 -5.17987,-1.72662 -8.05756,-6.33094 Q 99,463.89207 99,458.1367 q 0,-2.87768 1.15108,-5.75539 1.15109,-2.8777 3.45324,-5.75539 35.10791,-37.98562 59.85611,-80.57556 24.7482,-42.58993 25.32373,-107.62589 0,-64.46042 -24.74818,-106.76259 -24.74821,-42.30218 -59.85611,-80.287778 -2.30217,-2.877696 -3.45325,-5.755393 -1.151095,-2.877697 -1.151095,-5.755397 0,-5.755395 2.877695,-10.359711 2.87772,-4.604317 8.05756,-6.330934 18.41727,-6.330938 40.57555,-10.359713 22.15828,-4.028777 43.45324,-4.028777 46.61869,0 87.48201,17.553955 40.86332,17.553958 71.36691,48.34532 30.50362,30.791378 48.05755,73.093518 Q 419,210.07915 419,259 Z m -195.10789,0.57553 z"
     id="path2"
     style="stroke-width:11.5108;stroke:none;stroke-opacity:1;fill:#ceace8;fill-opacity:1" />
</svg>
