<?xml version="1.0" encoding="UTF-8" standalone="no"?>
<svg
   height="518"
   width="518"
   version="1.1"
   id="svg4"
   sodipodi:docname="brightness-6.svg"
   inkscape:version="1.2.1 (9c6d41e410, 2022-07-14)"
   xmlns:inkscape="http://www.inkscape.org/namespaces/inkscape"
   xmlns:sodipodi="http://sodipodi.sourceforge.net/DTD/sodipodi-0.dtd"
   xmlns="http://www.w3.org/2000/svg"
   xmlns:svg="http://www.w3.org/2000/svg">
  <defs
     id="defs8" />
  <sodipodi:namedview
     id="namedview6"
     pagecolor="#505050"
     bordercolor="#ffffff"
     borderopacity="1"
     inkscape:showpageshadow="0"
     inkscape:pageopacity="0"
     inkscape:pagecheckerboard="1"
     inkscape:deskcolor="#505050"
     showgrid="false"
     inkscape:zoom="0.21728802"
     inkscape:cx="248.51807"
     inkscape:cy="234.71151"
     inkscape:window-width="1254"
     inkscape:window-height="710"
     inkscape:window-x="10"
     inkscape:window-y="74"
     inkscape:window-maximized="1"
     inkscape:current-layer="svg4" />
  <path
     d="m 188.72028,427.75346 h -66.08392 q -13.11188,0 -22.29021,-9.1992 -9.178318,-9.1992 -9.178318,-22.34092 V 329.97909 L 42.916084,281.61758 Q 34,272.68122 34,259.5395 q 0,-13.14171 8.916084,-22.07808 l 48.251748,-48.36151 v -66.23425 q 0,-13.14171 9.178318,-22.34091 9.17833,-9.199205 22.29021,-9.199205 h 66.08392 L 236.97203,42.964033 Q 245.88811,33.501997 259,34.027666 q 13.11189,0.525669 22.55245,9.462035 l 47.72727,47.835844 h 66.08392 q 13.11188,0 22.29021,9.199205 9.17832,9.1992 9.17832,22.34091 v 66.23425 l 48.25175,48.36151 Q 484,246.39779 484,259.5395 q 0,13.14172 -8.91608,22.07808 l -48.25175,48.36151 v 66.23425 q 0,13.14172 -9.17832,22.34092 -9.17833,9.1992 -22.29021,9.1992 h -66.08392 l -47.72727,47.31017 Q 272.63636,484 259.52448,484 q -13.11189,0 -22.02798,-8.93637 z m 70.8042,-168.73963 z m 0,102.50538 q 43.00699,0 72.63986,-29.43744 29.63286,-29.43744 29.63286,-73.06794 0,-43.10482 -29.63286,-72.8051 -29.63287,-29.70028 -72.63986,-29.70028 z m 0,90.94067 56.64335,-56.24654 h 79.19581 V 316.83738 L 452.53147,259.5395 395.36364,202.24162 V 122.86566 H 316.16783 L 259.52448,65.567783 201.83217,122.86566 h -79.19581 v 79.37596 l -57.167829,57.29788 57.167829,57.29788 v 79.37596 h 78.67133 z"
     id="path2"
     style="stroke-width:10.5014;fill:#ece3b1;fill-opacity:1" />
</svg>
