<?xml version="1.0" encoding="UTF-8" standalone="no"?>
<svg
   height="518"
   width="518"
   version="1.1"
   id="svg4"
   sodipodi:docname="network.svg"
   inkscape:version="1.2.1 (9c6d41e410, 2022-07-14)"
   xmlns:inkscape="http://www.inkscape.org/namespaces/inkscape"
   xmlns:sodipodi="http://sodipodi.sourceforge.net/DTD/sodipodi-0.dtd"
   xmlns="http://www.w3.org/2000/svg"
   xmlns:svg="http://www.w3.org/2000/svg">
  <defs
     id="defs8" />
  <sodipodi:namedview
     id="namedview6"
     pagecolor="#505050"
     bordercolor="#ffffff"
     borderopacity="1"
     inkscape:showpageshadow="0"
     inkscape:pageopacity="0"
     inkscape:pagecheckerboard="1"
     inkscape:deskcolor="#505050"
     showgrid="false"
     inkscape:zoom="0.43457604"
     inkscape:cx="317.55087"
     inkscape:cy="255.42135"
     inkscape:window-width="1254"
     inkscape:window-height="710"
     inkscape:window-x="10"
     inkscape:window-y="74"
     inkscape:window-maximized="1"
     inkscape:current-layer="svg4" />
  <path
     d="M 259,304 Q 240.4375,304 227.21875,290.78125 214,277.5625 214,259 214,240.4375 227.21875,227.21875 240.4375,214 259,214 q 18.5625,0 31.78125,13.21875 Q 304,240.4375 304,259 304,277.5625 290.78125,290.78125 277.5625,304 259,304 Z M 88.5625,405.8125 Q 63.25,376 48.625,338.59375 34,301.1875 34,259 34,216.8125 48.625,179.40624 63.25,141.99999 88.5625,112.1875 q 4.5,-5.0625 11.53125,-5.0625 7.03125,0 12.09375,5.0625 4.5,4.5 4.78125,11.53124 0.28125,7.03125 -4.21875,12.65625 -20.8125,25.3125 -32.90625,56.25 Q 67.75,223.5625 67.75,259 q 0,35.4375 11.8125,66.375 11.8125,30.9375 33.1875,56.25 4.5,5.625 4.21875,12.65625 -0.28125,7.03125 -5.34375,12.09375 -5.0625,5.0625 -11.8125,4.78125 -6.75,-0.28125 -11.25,-5.34375 z m 63.5625,-64.125 Q 139.1875,324.8125 131.59375,303.71875 124,282.625 124,259 q 0,-23.625 7.59375,-44.71875 7.59375,-21.09376 20.53125,-37.96876 4.5,-5.625 11.53125,-5.625 7.03125,0 12.09375,5.0625 4.5,4.5 5.0625,11.53125 0.5625,7.03125 -3.9375,13.21876 -9,12.375 -14.0625,27.28125 Q 157.75,242.6875 157.75,259 q 0,16.3125 4.78125,31.21875 4.78125,14.90625 13.78125,27.28125 4.5,6.1875 4.21875,13.21875 -0.28125,7.03125 -5.34375,12.09375 -5.0625,5.0625 -11.8125,4.78125 -6.75,-0.28125 -11.25,-5.90625 z m 190.6875,1.125 q -4.5,-4.5 -5.34375,-11.8125 -0.84375,-7.3125 3.65625,-13.5 9,-12.375 14.0625,-27.28125 Q 360.25,275.3125 360.25,259 q 0,-16.3125 -4.78125,-31.21875 Q 350.6875,212.875 341.6875,200.5 q -4.5,-6.18751 -4.21875,-13.21876 0.28125,-7.03125 5.34375,-12.09375 5.0625,-5.0625 11.8125,-4.78125 6.75,0.28125 11.25,5.90625 12.9375,16.875 20.53125,37.96876 Q 394,235.375 394,259 q 0,23.625 -7.59375,44.4375 -7.59375,20.8125 -20.53125,38.25 -4.5,5.625 -11.25,5.90625 -6.75,0.28125 -11.8125,-4.78125 z m 63.5625,63.5625 q -4.5,-4.5 -5.0625,-11.8125 Q 400.75,387.25 405.25,381.625 426.0625,356.3125 438.15625,325.375 450.25,294.4375 450.25,259 q 0,-35.4375 -11.8125,-66.37501 -11.8125,-30.9375 -33.1875,-56.25 -4.5,-5.625 -4.21875,-12.65625 0.28125,-7.03124 5.34375,-12.09374 5.0625,-5.0625 11.8125,-4.78125 6.75,0.28125 11.25,5.34375 25.3125,29.81249 39.9375,67.21874 Q 484,216.8125 484,259 484,301.1875 469.375,338.59375 454.75,376 429.4375,405.8125 q -4.5,5.0625 -11.25,5.34375 -6.75,0.28125 -11.8125,-4.78125 z"
     id="path2"
     style="stroke-width:11.25;fill:#e2c0fc;fill-opacity:1" />
</svg>
