<?xml version="1.0" encoding="UTF-8" standalone="no"?>
<svg
   height="518"
   width="518"
   version="1.1"
   id="svg4"
   sodipodi:docname="timer.svg"
   inkscape:version="1.2.1 (9c6d41e410, 2022-07-14)"
   xmlns:inkscape="http://www.inkscape.org/namespaces/inkscape"
   xmlns:sodipodi="http://sodipodi.sourceforge.net/DTD/sodipodi-0.dtd"
   xmlns="http://www.w3.org/2000/svg"
   xmlns:svg="http://www.w3.org/2000/svg">
  <defs
     id="defs8" />
  <sodipodi:namedview
     id="namedview6"
     pagecolor="#505050"
     bordercolor="#ffffff"
     borderopacity="1"
     inkscape:showpageshadow="0"
     inkscape:pageopacity="0"
     inkscape:pagecheckerboard="1"
     inkscape:deskcolor="#505050"
     showgrid="false"
     inkscape:zoom="0.43457604"
     inkscape:cx="-36.817492"
     inkscape:cy="225.50714"
     inkscape:window-width="1254"
     inkscape:window-height="710"
     inkscape:window-x="10"
     inkscape:window-y="74"
     inkscape:window-maximized="1"
     inkscape:current-layer="svg4" />
  <path
     d="m 209,59.277778 q -7.22223,0 -11.94445,-4.722222 -4.72222,-4.722222 -4.72222,-11.944444 0,-7.222222 4.72222,-11.944445 Q 201.77777,25.944445 209,25.944445 h 100 q 7.22223,0 11.94445,4.722222 4.72222,4.722223 4.72222,11.944445 0,7.222222 -4.72222,11.944444 Q 316.22223,59.277778 309,59.277778 Z m 50,248.333342 q 7.22223,0 11.94445,-4.72222 4.72222,-4.72222 4.72222,-11.94446 v -94.44445 q 0,-7.22222 -4.72222,-11.94444 -4.72222,-4.72222 -11.94445,-4.72222 -7.22223,0 -11.94445,4.72222 -4.72222,4.72222 -4.72222,11.94444 v 94.44445 q 0,7.22224 4.72222,11.94446 4.72222,4.72222 11.94445,4.72222 z m 0,184.44444 q -41.11111,0 -77.5,-15.83335 Q 145.11111,460.3889 117.88889,433.16668 90.666667,405.94444 74.833333,369.55556 59,333.16668 59,292.05556 59,250.94444 74.833333,214.55555 90.666667,178.16667 117.88889,150.94444 145.11111,123.72222 181.5,107.88889 217.88889,92.055556 259,92.055556 q 37.22223,0 70,12.500004 32.77777,12.5 58.33333,34.72221 l 17.22222,-17.22221 q 4.44445,-4.44445 11.11112,-4.44445 6.66666,0 11.66666,5 5,5.00001 5,11.66667 0,6.66666 -5,11.66666 l -16.66666,16.66667 q 20,22.22222 34.16666,53.88889 Q 459,248.16667 459,292.05556 q 0,41.11111 -15.83333,77.5 -15.83334,36.38888 -43.05556,63.61112 Q 372.88889,460.3889 336.5,476.22221 300.11111,492.05556 259,492.05556 Z m 0,-33.33335 q 69.44445,0 118.05555,-48.6111 48.61112,-48.61112 48.61112,-118.05556 0,-69.44444 -48.61112,-118.05556 -48.6111,-48.6111 -118.05555,-48.6111 -69.44444,0 -118.05556,48.6111 -48.611107,48.61112 -48.611107,118.05556 0,69.44444 48.611107,118.05556 48.61112,48.6111 118.05556,48.6111 z m 0,-166.1111 z"
     id="path2"
     style="stroke-width:11.1111;fill:#dde8ff;fill-opacity:1" />
</svg>
