<?xml version="1.0" encoding="UTF-8" standalone="no"?>
<svg
   height="518"
   width="518"
   version="1.1"
   id="svg4"
   sodipodi:docname="volume-mute.svg"
   inkscape:version="1.2.1 (9c6d41e410, 2022-07-14)"
   xmlns:inkscape="http://www.inkscape.org/namespaces/inkscape"
   xmlns:sodipodi="http://sodipodi.sourceforge.net/DTD/sodipodi-0.dtd"
   xmlns="http://www.w3.org/2000/svg"
   xmlns:svg="http://www.w3.org/2000/svg">
  <defs
     id="defs8" />
  <sodipodi:namedview
     id="namedview6"
     pagecolor="#505050"
     bordercolor="#ffffff"
     borderopacity="1"
     inkscape:showpageshadow="0"
     inkscape:pageopacity="0"
     inkscape:pagecheckerboard="1"
     inkscape:deskcolor="#505050"
     showgrid="false"
     inkscape:zoom="0.43457604"
     inkscape:cx="126.56013"
     inkscape:cy="39.118585"
     inkscape:window-width="1254"
     inkscape:window-height="710"
     inkscape:window-x="10"
     inkscape:window-y="74"
     inkscape:window-maximized="1"
     inkscape:current-layer="svg4" />
  <path
     d="m 453.5218,478.82097 -63.25666,-63.29923 q -11.50121,8.05627 -23.86501,14.67391 -12.36381,6.61765 -25.5902,11.22123 -9.20097,2.87724 -16.67675,-2.87724 -7.47579,-5.75447 -7.47579,-15.53708 0,-4.60358 2.58777,-8.34399 2.58777,-3.74041 7.18826,-4.89131 10.35109,-3.45268 20.41465,-8.05626 10.06356,-4.60358 18.68946,-10.93351 L 270.65255,295.2532 v 94.94885 q 0,11.50895 -10.63862,15.8248 -10.63862,4.31586 -18.68947,-3.7404 L 155.64044,316.54476 H 80.882567 q -7.475787,0 -12.363802,-4.89131 -4.888014,-4.8913 -4.888014,-12.37212 V 195.70077 q 0,-7.48082 4.888014,-12.37213 4.888015,-4.8913 12.363802,-4.8913 H 153.3402 L 38.903148,63.923274 Q 33.727603,58.744246 34.015133,51.551151 34.302663,44.358056 39.478208,39.179028 44.653753,34 51.55448,34 q 6.900726,0 12.076271,5.179028 L 478.82446,454.07673 Q 484,459.25575 484,466.44885 q 0,7.19309 -5.17554,12.37212 Q 473.64891,484 466.17313,484 q -7.47579,0 -12.65133,-5.17903 z M 340.80993,52.414322 q 61.53148,21.867008 99.19794,75.095908 37.66647,53.2289 37.66647,119.40537 0,29.34783 -8.05085,57.54476 -8.05085,28.19693 -24.15254,53.51662 l -24.7276,-24.74424 q 11.50121,-19.56522 16.96428,-41.43223 5.46308,-21.86701 5.46308,-44.88491 0,-56.96931 -31.91586,-102.42967 -31.91586,-45.460355 -84.82143,-60.997439 -4.60049,-1.150895 -7.18826,-4.891304 -2.58777,-3.74041 -2.58777,-8.34399 0,-9.782609 7.76332,-15.249361 7.76331,-5.466752 16.38922,-2.589514 z M 212.57143,237.70844 Z m 155.84141,43.15857 -51.75545,-51.79028 v -74.80819 q 27.02784,12.65985 42.26695,37.97954 15.2391,25.31969 15.2391,55.24297 0,8.63171 -1.43765,16.9757 -1.43765,8.34399 -4.31295,16.40026 z m -97.76029,-97.82609 -59.8063,-59.84655 30.47821,-30.498718 q 8.05085,-8.056266 18.68947,-3.740409 10.63862,4.315857 10.63862,15.824807 z m -34.50364,164.57801 v -86.31714 l -48.30508,-48.3376 H 98.134383 v 69.05371 h 72.457627 z"
     id="path2"
     style="stroke-width:11.5051;fill:#b4e3ad;fill-opacity:1" />
</svg>
