<?xml version="1.0" encoding="UTF-8" standalone="no"?>
<svg
   height="518"
   width="518"
   version="1.1"
   id="svg4"
   sodipodi:docname="airplane-disable.svg"
   inkscape:version="1.2.1 (9c6d41e410, 2022-07-14)"
   xmlns:inkscape="http://www.inkscape.org/namespaces/inkscape"
   xmlns:sodipodi="http://sodipodi.sourceforge.net/DTD/sodipodi-0.dtd"
   xmlns="http://www.w3.org/2000/svg"
   xmlns:svg="http://www.w3.org/2000/svg">
  <defs
     id="defs8" />
  <sodipodi:namedview
     id="namedview6"
     pagecolor="#505050"
     bordercolor="#ffffff"
     borderopacity="1"
     inkscape:showpageshadow="0"
     inkscape:pageopacity="0"
     inkscape:pagecheckerboard="1"
     inkscape:deskcolor="#505050"
     showgrid="false"
     inkscape:zoom="0.15364583"
     inkscape:cx="429.55933"
     inkscape:cy="65.084747"
     inkscape:window-width="1260"
     inkscape:window-height="724"
     inkscape:window-x="10"
     inkscape:window-y="66"
     inkscape:window-maximized="1"
     inkscape:current-layer="svg4" />
  <path
     d="M 463.4831,332.88011 340.38175,295.17352 234.4702,189.26239 V 61.725427 q 0,-11.644679 8.04041,-19.685054 8.04041,-8.040374 19.68512,-8.040374 11.64472,0 19.68513,8.040374 8.04041,8.040375 8.04041,19.685054 V 192.58945 l 185.20656,108.68367 q 3.88157,2.21803 6.37687,7.20861 2.4953,4.99057 2.4953,9.42665 0,8.87214 -6.09962,13.3082 -6.09961,4.43607 -14.41728,1.66353 z M 431.32149,479.27037 289.92127,337.87067 v 81.51276 l 38.26123,28.83445 q 2.77256,2.21804 4.43609,5.54511 1.66353,3.32703 1.66353,6.65408 0,6.0996 -4.43609,9.42665 -4.43609,3.32705 -10.5357,1.66352 l -57.1146,-16.08074 -57.11459,16.08074 q -6.09962,1.66353 -10.53572,-1.38628 -4.43608,-3.04978 -4.43608,-9.70389 0,-3.32705 1.66354,-6.65408 1.66353,-3.32707 4.43609,-5.54511 L 234.4702,419.38343 V 281.86531 l -173.561839,51.0148 q -8.31766,2.77254 -14.417277,-1.66353 -6.099618,-4.43606 -6.099618,-13.8627 0,-4.43608 2.495296,-9.1494 2.4953,-4.71333 6.376873,-6.93136 L 176.80109,225.85996 38.727933,86.678312 q -4.436085,-4.990578 -4.71334,-11.64468 -0.277256,-6.654103 4.71334,-11.644678 4.990596,-4.990578 11.644724,-4.990578 6.654128,0 11.644725,4.990578 L 454.61094,456.53552 q 4.99058,4.99057 4.99058,11.92193 0,6.93136 -4.99058,11.36743 -4.4361,4.43607 -11.64472,4.15881 -7.20865,-0.27725 -11.64473,-4.71332 z"
     id="path2"
     style="fill:#e5a3a1;fill-opacity:1;stroke-width:11.0901" />
</svg>
