<?xml version="1.0" encoding="UTF-8" standalone="no"?>
<svg
   height="518"
   width="518"
   version="1.1"
   id="svg4"
   sodipodi:docname="bluetooth-disable.svg"
   inkscape:version="1.2.1 (9c6d41e410, 2022-07-14)"
   xmlns:inkscape="http://www.inkscape.org/namespaces/inkscape"
   xmlns:sodipodi="http://sodipodi.sourceforge.net/DTD/sodipodi-0.dtd"
   xmlns="http://www.w3.org/2000/svg"
   xmlns:svg="http://www.w3.org/2000/svg">
  <defs
     id="defs8" />
  <sodipodi:namedview
     id="namedview6"
     pagecolor="#505050"
     bordercolor="#ffffff"
     borderopacity="1"
     inkscape:showpageshadow="0"
     inkscape:pageopacity="0"
     inkscape:pagecheckerboard="1"
     inkscape:deskcolor="#505050"
     showgrid="false"
     inkscape:zoom="0.30729167"
     inkscape:cx="130.16949"
     inkscape:cy="299.38983"
     inkscape:window-width="1260"
     inkscape:window-height="724"
     inkscape:window-x="10"
     inkscape:window-y="66"
     inkscape:window-maximized="1"
     inkscape:current-layer="svg4" />
  <path
     d="M 256.63159,301.63158 154.19737,404.0658 q -5.32894,5.32894 -12.4342,5.32894 -7.10527,0 -12.43422,-5.32894 Q 124,398.73684 124,391.63158 q 0,-7.10527 5.32895,-12.43421 L 249.52632,259.00002 129.32895,138.80264 Q 124,133.47369 124,126.36843 q 0,-7.10527 5.32895,-12.43422 5.32895,-5.32895 12.43422,-5.32895 7.10526,0 12.4342,5.32895 L 256.63159,216.36842 V 54.723688 q 0,-7.697369 4.44078,-12.138158 4.44079,-4.44079 11.54605,-4.44079 4.73686,0 9.47368,2.368421 4.73685,2.368421 10.0658,7.697369 l 96.51316,96.51316 q 2.96053,2.96053 4.14473,5.92106 1.18421,2.96051 1.18421,6.51316 0,3.55262 -1.18421,6.51315 -1.1842,2.96052 -4.14473,5.92105 l -89.4079,89.40791 89.4079,89.40788 q 2.96053,2.96052 4.14473,5.92105 1.18421,2.96052 1.18421,6.51316 0,3.55262 -1.18421,6.51315 -1.1842,2.96054 -4.14473,5.92107 l -96.51316,96.51314 q -5.32895,5.32895 -10.0658,7.69737 -4.73682,2.36842 -9.47368,2.36842 -7.10526,0 -11.54605,-4.44079 -4.44078,-4.44078 -4.44078,-12.13815 z M 292.1579,216.36842 351.36843,157.15791 292.1579,99.13158 Z m 0,202.5 59.21053,-58.02631 -59.21053,-59.21053 z"
     id="path2"
     style="fill:#a3cbe7;fill-opacity:1;stroke-width:11.8421" />
</svg>
