<?xml version="1.0" encoding="UTF-8" standalone="no"?>
<svg
   height="518"
   width="518"
   version="1.1"
   id="svg135"
   sodipodi:docname="dnd-enable.svg"
   inkscape:version="1.2.1 (9c6d41e410, 2022-07-14)"
   xmlns:inkscape="http://www.inkscape.org/namespaces/inkscape"
   xmlns:sodipodi="http://sodipodi.sourceforge.net/DTD/sodipodi-0.dtd"
   xmlns="http://www.w3.org/2000/svg"
   xmlns:svg="http://www.w3.org/2000/svg">
  <defs
     id="defs139" />
  <sodipodi:namedview
     id="namedview137"
     pagecolor="#505050"
     bordercolor="#ffffff"
     borderopacity="1"
     inkscape:showpageshadow="0"
     inkscape:pageopacity="0"
     inkscape:pagecheckerboard="1"
     inkscape:deskcolor="#505050"
     showgrid="false"
     inkscape:zoom="0.43457605"
     inkscape:cx="13.806559"
     inkscape:cy="243.91588"
     inkscape:window-width="1260"
     inkscape:window-height="724"
     inkscape:window-x="10"
     inkscape:window-y="66"
     inkscape:window-maximized="1"
     inkscape:current-layer="svg135" />
  <path
     d="m 323.86884,272.3995 -33.4769,-33.49876 h 65.8379 q 6.69538,0 11.43794,5.02482 4.74256,5.02481 4.74256,11.72456 0,7.25807 -4.74256,12.00373 -4.74256,4.74565 -11.99589,4.74565 z m 111.03171,206.57569 -41.28817,-40.75683 q -27.89742,20.09926 -61.37432,31.26551 -33.4769,11.16625 -71.41738,11.16625 -47.42561,0 -88.15584,-17.02853 -40.73022,-17.02854 -70.85944,-47.17742 -30.129204,-30.14888 -47.146627,-70.90571 -17.017424,-40.75682 -17.017424,-88.2134 0,-37.96526 11.158966,-71.46402 11.158967,-33.49876 31.245106,-61.41439 L 38.757246,83.131514 Q 33.735711,78.1067 34.014685,71.406948 q 0.278974,-6.699752 5.300509,-11.724566 5.021535,-5.024814 11.995889,-5.024814 6.974354,0 11.995889,5.024814 L 458.89233,455.52605 q 5.02153,5.02482 5.02153,11.72457 0,6.69975 -5.02153,11.72457 Q 453.8708,484 446.89644,484 q -6.97435,0 -11.99589,-5.02481 z m 6.69538,-88.77172 -23.99178,-24.00744 q 15.62256,-23.44913 24.27076,-50.80645 8.6482,-27.35732 8.6482,-58.06452 0,-80.95533 -54.39997,-135.39082 -54.39996,-54.435481 -135.30246,-54.435481 -30.68716,0 -58.02663,8.653846 -27.33946,8.653847 -50.77329,24.286605 L 128.02898,76.431762 Q 155.92639,56.332506 189.40329,45.166253 222.88019,34 260.82068,34 q 46.86766,0 87.59788,17.307692 40.73023,17.307693 70.85944,47.456576 30.12921,30.148882 47.42561,70.905712 Q 484,210.4268 484,257.32506 q 0,37.96526 -11.15896,71.46402 -11.15897,33.49876 -31.24511,61.41439 z M 369.6206,414.21092 231.24942,272.3995 h -65.8379 q -6.69538,0 -11.43794,-5.02481 -4.74257,-5.02481 -4.74257,-11.72457 0,-7.25806 4.74257,-12.00372 4.74256,-4.74566 11.99588,-4.74566 h 31.80306 L 104.0372,148.45409 q -15.622554,23.44914 -24.270753,50.80646 -8.648199,27.35732 -8.648199,58.06451 0,80.95534 54.399962,135.39082 54.39996,54.43548 135.30247,54.43548 30.68716,0 58.02662,-8.65384 27.33947,-8.65385 50.7733,-24.2866 z M 290.39194,238.90074 Z m -53.56304,42.43177 z"
     id="path133"
     style="fill:#b4e3ad;fill-opacity:1;stroke-width:11.1626" />
</svg>
