<?xml version="1.0" encoding="UTF-8" standalone="no"?>
<svg
   height="518"
   width="518"
   version="1.1"
   id="svg4"
   sodipodi:docname="nightlight-disable.svg"
   inkscape:version="1.2.1 (9c6d41e410, 2022-07-14)"
   xmlns:inkscape="http://www.inkscape.org/namespaces/inkscape"
   xmlns:sodipodi="http://sodipodi.sourceforge.net/DTD/sodipodi-0.dtd"
   xmlns="http://www.w3.org/2000/svg"
   xmlns:svg="http://www.w3.org/2000/svg">
  <defs
     id="defs8" />
  <sodipodi:namedview
     id="namedview6"
     pagecolor="#505050"
     bordercolor="#ffffff"
     borderopacity="1"
     inkscape:showpageshadow="0"
     inkscape:pageopacity="0"
     inkscape:pagecheckerboard="1"
     inkscape:deskcolor="#505050"
     showgrid="false"
     inkscape:zoom="0.15364583"
     inkscape:cx="-722.44067"
     inkscape:cy="820.06779"
     inkscape:window-width="1260"
     inkscape:window-height="724"
     inkscape:window-x="10"
     inkscape:window-y="66"
     inkscape:window-maximized="1"
     inkscape:current-layer="svg4" />
  <path
     d="m 259,330.6409 q 29.65909,0 50.625,-20.96591 20.96591,-20.96591 20.96591,-50.625 0,-29.65909 -20.96591,-50.625 -20.96591,-20.96591 -50.625,-20.96591 -29.65909,0 -50.625,20.96591 -20.96591,20.96591 -20.96591,50.625 0,29.65909 20.96591,50.625 20.96591,20.96591 50.625,20.96591 z m 0,30.68182 q -42.44318,0 -72.35795,-29.91478 -29.91478,-29.91477 -29.91478,-72.35795 0,-42.44318 29.91478,-72.35795 29.91477,-29.91478 72.35795,-29.91478 42.44318,0 72.35795,29.91478 29.91478,29.91477 29.91478,72.35795 0,42.44318 -29.91478,72.35795 Q 301.44318,361.32272 259,361.32272 Z M 49.340909,274.3909 q -6.647727,0 -10.994318,-4.34659 Q 34,265.69772 34,259.04999 q 0,-6.64773 4.346591,-10.99432 4.346591,-4.34659 10.994318,-4.34659 h 51.136361 q 6.64773,0 10.99432,4.34659 4.34659,4.34659 4.34659,10.99432 0,6.64773 -4.34659,10.99432 -4.34659,4.34659 -10.99432,4.34659 z m 368.181821,0 q -6.64773,0 -10.99432,-4.34659 -4.34659,-4.34659 -4.34659,-10.99432 0,-6.64773 4.34659,-10.99432 4.34659,-4.34659 10.99432,-4.34659 h 51.13636 q 6.64773,0 10.99432,4.34659 Q 484,252.40226 484,259.04999 q 0,6.64773 -4.34659,10.99432 -4.34659,4.34659 -10.99432,4.34659 z M 259,115.86817 q -6.64773,0 -10.99432,-4.34659 -4.34659,-4.34659 -4.34659,-10.99432 V 49.390897 q 0,-6.647727 4.34659,-10.994318 4.34659,-4.346591 10.99432,-4.346591 6.64773,0 10.99432,4.346591 4.34659,4.346591 4.34659,10.994318 v 51.136363 q 0,6.64773 -4.34659,10.99432 -4.34659,4.34659 -10.99432,4.34659 z m 0,368.18182 q -6.64773,0 -10.99432,-4.34659 -4.34659,-4.34659 -4.34659,-10.99432 v -51.13636 q 0,-6.64773 4.34659,-10.99432 4.34659,-4.34659 10.99432,-4.34659 6.64773,0 10.99432,4.34659 4.34659,4.34659 4.34659,10.99432 v 51.13636 q 0,6.64773 -4.34659,10.99432 -4.34659,4.34659 -10.99432,4.34659 z M 136.27273,157.79999 107.125,129.16362 q -4.60227,-4.60227 -4.34659,-10.99431 0.25568,-6.39205 4.34659,-10.99432 4.60227,-4.60228 10.99432,-4.60228 6.39204,0 10.99432,4.60228 L 157.75,136.32272 q 4.09091,4.60227 4.09091,10.73863 0,6.13637 -4.09091,10.22728 -4.09091,4.60227 -10.48295,4.60227 -6.39205,0 -10.99432,-4.09091 z M 388.88636,410.92499 360.25,381.77726 q -4.09091,-4.60227 -4.09091,-10.99432 0,-6.39204 4.60227,-10.48295 4.09091,-4.60227 10.22728,-4.60227 6.13636,0 10.73863,4.60227 l 29.14773,28.63636 q 4.60227,4.60228 4.34659,10.99432 -0.25568,6.39205 -4.34659,10.99432 -4.60227,4.60227 -10.99432,4.60227 -6.39204,0 -10.99432,-4.60227 z M 360.25,157.79999 q -4.60227,-4.60227 -4.60227,-10.73864 0,-6.13636 4.60227,-10.73863 l 28.63636,-29.14773 q 4.60228,-4.60228 10.99432,-4.34659 6.39205,0.25568 10.99432,4.34659 4.60227,4.60227 4.60227,10.99432 0,6.39204 -4.60227,10.99431 l -29.14773,28.63637 q -4.09091,4.09091 -10.48295,4.09091 -6.39205,0 -10.99432,-4.09091 z m -253.125,253.125 q -4.60227,-4.60227 -4.60227,-10.99432 0,-6.39204 4.60227,-10.99432 l 29.14773,-28.63636 q 4.60227,-4.60227 10.73863,-4.60227 6.13637,0 10.73864,4.60227 4.60227,4.60227 4.60227,10.73864 0,6.13636 -4.60227,10.73863 l -28.63636,29.14773 q -4.60228,4.60227 -10.99432,4.34659 -6.39205,-0.25568 -10.99432,-4.34659 z M 259,259.04999 Z"
     id="path2"
     style="fill:#ece3b1;fill-opacity:1;stroke-width:10.2273" />
</svg>
